<svg width="14" height="12" viewBox="0 0 14 12" fill="none" xmlns="http://www.w3.org/2000/svg">
<path fill-rule="evenodd" clip-rule="evenodd" d="M10.2933 2.1576C10.32 2.20422 10.3667 2.23751 10.4267 2.23751C12.0267 2.23751 13.3333 3.54273 13.3333 5.14095V9.09656C13.3333 10.6948 12.0267 12 10.4267 12H2.90667C1.3 12 0 10.6948 0 9.09656V5.14095C0 3.54273 1.3 2.23751 2.90667 2.23751C2.96 2.23751 3.01333 2.21088 3.03333 2.1576L3.07333 2.07769C3.09632 2.02932 3.11991 1.97963 3.14385 1.92919C3.3144 1.56996 3.50308 1.17253 3.62 0.938957C3.92667 0.339623 4.44667 0.00665927 5.09333 0H8.23333C8.88 0.00665927 9.40667 0.339623 9.71333 0.938957C9.81833 1.14872 9.9783 1.48661 10.1325 1.81228C10.1643 1.87948 10.1959 1.94617 10.2267 2.0111L10.2933 2.1576ZM9.80667 4.71476C9.80667 5.04772 10.0733 5.3141 10.4067 5.3141C10.74 5.3141 11.0133 5.04772 11.0133 4.71476C11.0133 4.3818 10.74 4.10877 10.4067 4.10877C10.0733 4.10877 9.80667 4.3818 9.80667 4.71476ZM5.51333 5.74695C5.82667 5.43396 6.23333 5.26748 6.66667 5.26748C7.1 5.26748 7.50667 5.43396 7.81333 5.74029C8.12 6.04661 8.28667 6.45283 8.28667 6.88568C8.28 7.77802 7.56 8.50388 6.66667 8.50388C6.23333 8.50388 5.82667 8.3374 5.52 8.03108C5.21333 7.72475 5.04667 7.31853 5.04667 6.88568V6.87902C5.04 6.45949 5.20667 6.05327 5.51333 5.74695ZM8.51333 8.73696C8.04 9.20977 7.38667 9.50278 6.66667 9.50278C5.96667 9.50278 5.31333 9.22974 4.81333 8.73696C4.32 8.23751 4.04667 7.58491 4.04667 6.88568C4.04 6.19312 4.31333 5.54051 4.80667 5.04107C5.30667 4.54162 5.96667 4.26859 6.66667 4.26859C7.36667 4.26859 8.02667 4.54162 8.52 5.03441C9.01333 5.53385 9.28667 6.19312 9.28667 6.88568C9.28 7.61154 8.98667 8.26415 8.51333 8.73696Z" fill="white"/>
</svg>
