<svg width="66" height="66" viewBox="0 0 66 66" fill="none" xmlns="http://www.w3.org/2000/svg">
<path fill-rule="evenodd" clip-rule="evenodd" d="M55.7896 14.4182C56.8594 14.4182 57.75 15.3064 57.75 16.4366V17.4816C57.75 18.5844 56.8594 19.5001 55.7896 19.5001H10.2131C9.14061 19.5001 8.25 18.5844 8.25 17.4816V16.4366C8.25 15.3064 9.14061 14.4182 10.2131 14.4182H18.2313C19.8601 14.4182 21.2776 13.2604 21.644 11.6269L22.0639 9.75146C22.7165 7.19673 24.8641 5.5 27.322 5.5H38.678C41.1091 5.5 43.2808 7.19673 43.9094 9.61671L44.3587 11.6242C44.7224 13.2604 46.1399 14.4182 47.7714 14.4182H55.7896ZM51.716 52.6186C52.5531 44.8169 54.0188 26.2821 54.0188 26.0951C54.0723 25.5286 53.8877 24.9924 53.5213 24.5606C53.1282 24.1564 52.6307 23.9171 52.0824 23.9171H13.9384C13.3875 23.9171 12.8633 24.1564 12.4995 24.5606C12.1305 24.9924 11.9486 25.5286 11.9753 26.0951C11.9803 26.1295 12.0328 26.7823 12.1208 27.8739C12.5114 32.7228 13.5992 46.228 14.3022 52.6186C14.7996 57.3265 17.8887 60.2855 22.3632 60.3928C25.816 60.4725 29.3731 60.5 33.0104 60.5C36.4365 60.5 39.916 60.4725 43.4758 60.3928C48.1054 60.313 51.1918 57.4063 51.716 52.6186Z" fill="#6941C6"/>
</svg>
