<svg width="298" height="216" viewBox="0 0 298 216" fill="none" xmlns="http://www.w3.org/2000/svg">
<path d="M288.66 214.936C293.448 214.936 297.354 211.099 297.43 206.311C297.795 182.448 299.717 147.238 254.774 137.504C218.4 129.623 239.969 64.9842 142.008 69.1589C71.6927 72.1556 90.3687 131.428 35.6979 136.361C-0.682644 139.647 -0.999535 185.658 0.398923 206.738C0.702037 211.347 4.5323 214.929 9.15479 214.929H288.66V214.936Z" fill="#DDDDEC"/>
<path opacity="0.55" d="M254.774 137.497C218.4 129.616 239.969 64.9769 142.008 69.1516C125.282 69.8681 113.598 73.7672 104.76 79.3542C107.736 78.9615 110.898 78.6859 114.267 78.5482C212.221 74.3734 190.658 139.013 227.032 146.893C271.5 156.524 270.095 191.086 269.702 214.929H288.66C293.448 214.929 297.354 211.092 297.43 206.304C297.795 182.44 299.717 147.238 254.774 137.497Z" fill="#EAEBF2"/>
<path d="M248.068 199.043C248.068 199.043 246.511 197.583 247.558 192.058C248.605 186.533 251.264 181.221 249.955 175.228C248.653 169.228 238.43 154.113 238.402 153.108C238.368 152.102 235.247 170.695 240.531 178.025C245.815 185.348 246.449 187.89 246.214 191.741C245.98 195.592 246.27 198.699 246.848 199.594L248.068 199.043Z" fill="#D6BBFB"/>
<path d="M247.097 187.932C246.484 190.398 246.112 196.577 247.09 198.058C247.18 198.196 247.311 198.12 247.476 197.865C247.18 196.846 246.98 195.055 247.545 192.065C248.592 186.54 251.251 181.229 249.942 175.235C248.64 169.235 238.417 154.121 238.39 153.115C238.39 153.115 239.933 165.715 245.113 174.381C248.833 180.581 247.71 185.465 247.097 187.932Z" fill="#9E77ED"/>
<path d="M249.927 198.665C249.927 198.665 246.923 191.169 252.014 184.68C257.105 178.191 265.241 169.855 265.399 166.555C265.399 166.555 267.494 182.228 260.867 186.664C254.246 191.101 249.603 191.81 250.747 198.637L249.927 198.665Z" fill="#D6BBFB"/>
<path d="M257.077 183.516C249.692 188.889 249.086 195.082 250.237 197.955C250.326 198.175 250.492 198.313 250.719 198.389C249.727 191.803 254.336 191.052 260.873 186.671C267.494 182.234 265.406 166.562 265.406 166.562C265.406 166.562 264.455 178.135 257.077 183.516Z" fill="#9E77ED"/>
<path d="M244.988 198.83C244.988 198.83 245.952 194.862 245.436 190.577C244.926 186.292 240.448 183.881 236.266 179.355C234.117 177.026 233.476 164.716 234.813 163.572C234.813 163.572 227.428 172.521 228.571 179.072C229.708 185.624 241.757 189.881 242.873 193.05C243.989 196.219 243.893 198.871 243.893 198.871L244.988 198.83Z" fill="#D6BBFB"/>
<path d="M232.319 167.092C229.88 173.699 232.381 181.704 240.489 186.678C246.455 190.336 244.554 197.948 244.554 197.948L245.532 194.944C245.622 193.649 245.628 192.134 245.442 190.577C244.933 186.292 240.455 183.881 236.273 179.355C234.2 177.109 233.531 165.577 234.682 163.737C234.344 164.164 233.387 165.404 232.319 167.092Z" fill="#9E77ED"/>
<path d="M234.683 163.738C234.765 163.634 234.814 163.572 234.814 163.572C234.772 163.614 234.724 163.669 234.683 163.738Z" fill="#9E77ED"/>
<path d="M251.471 198.334C251.471 198.334 253.2 191.913 257.485 191.045C261.763 190.184 266.682 183.853 266.943 182.613C266.943 182.62 266.22 194.545 251.471 198.334Z" fill="#D6BBFB"/>
<path d="M257.238 193.174C254.613 194.483 253.524 196.247 253.139 197.852C266.269 193.629 266.944 182.621 266.944 182.621C266.889 182.869 266.655 183.316 266.276 183.874C264.988 186.134 261.874 190.86 257.238 193.174Z" fill="#9E77ED"/>
<path d="M260.736 195.971H238.347L241.006 212.69C241.206 213.958 242.301 214.895 243.582 214.895H255.493C256.775 214.895 257.87 213.965 258.07 212.69L260.736 195.971Z" fill="#FEC84B"/>
<path d="M260.295 198.74L260.736 195.971H238.347L238.788 198.74H260.295Z" fill="#FDB022"/>
<path d="M255.307 195.971L252.648 212.69C252.448 213.958 251.353 214.895 250.071 214.895H255.493C256.774 214.895 257.87 213.965 258.069 212.69L260.729 195.971H255.307Z" fill="#FDB022"/>
<path d="M46.5146 95.5162C48.9188 95.5162 51.0131 93.7665 51.3437 91.3829C51.3988 90.9558 51.4333 90.5149 51.4333 90.074C51.4333 84.7626 47.1277 80.457 41.8163 80.457C41.5959 80.457 41.3823 80.4639 41.1687 80.4845C40.7278 75.2489 36.3396 71.1362 30.9938 71.1362C25.3517 71.1362 20.7774 75.7105 20.7774 81.3525C20.7774 81.6005 20.7912 81.8485 20.805 82.0966C19.2067 81.201 17.3398 80.7256 15.3558 80.8152C10.2236 81.0494 6.00751 85.1553 5.6424 90.2806C5.6424 90.322 5.63551 90.3633 5.63551 90.4046C5.47017 93.1878 7.72286 95.53 10.5129 95.53H46.5146V95.5162Z" fill="#E9D7FE"/>
<path d="M276.006 103.066C283.611 103.066 284.031 91.6234 276.433 91.2514C276.226 91.2445 276.019 91.2376 275.806 91.2376C274.449 91.2376 273.147 91.4511 271.92 91.8438C270.901 85.6506 265.527 80.9248 259.045 80.9248C252.418 80.9248 246.955 85.8642 246.114 92.2571C244.544 91.5062 242.78 91.0791 240.92 91.0791C239.88 91.0791 238.874 91.21 237.91 91.458C231.262 93.1734 232.653 103.066 239.522 103.066H276.006Z" fill="#E9D7FE"/>
<path d="M197.244 22.1342C204.843 22.1342 205.27 10.6917 197.672 10.3265C197.465 10.3196 197.258 10.3128 197.045 10.3128C195.688 10.3128 194.385 10.5263 193.159 10.919C192.14 4.72582 186.766 0 180.291 0C173.67 0 168.201 4.93938 167.36 11.3323C165.789 10.5814 164.026 10.1543 162.173 10.1543C161.132 10.1543 160.127 10.2852 159.162 10.5332C152.514 12.2417 153.913 22.1342 160.774 22.1342H197.244Z" fill="#E9D7FE"/>
<path d="M216.231 50.7671V210.315L209.142 211.244L176.894 215.472V55.9243L216.231 50.7671Z" fill="#D6D6D6"/>
<path d="M137.566 50.7671V210.315L98.2373 215.472V55.9243L112.073 54.103L137.566 50.7671Z" fill="#D6D6D6"/>
<path d="M176.893 55.9243V215.472L137.564 210.315V50.7671L166.669 54.5823L176.893 55.9243Z" fill="#D6D6D6"/>
<path d="M98.2372 55.9243V215.472L64.384 211.033L62.6163 210.803L58.8994 210.315V50.7671L61.6512 51.1314L65.9032 51.6873L98.2372 55.9243Z" fill="#D6D6D6"/>
<path d="M176.902 59.318L212.475 54.688V206.634L176.902 211.254V59.318Z" fill="#DCDBDB"/>
<path d="M98.2363 59.6055L137.565 54.688V206.634L98.2363 211.542V59.6055Z" fill="#DCDBDB"/>
<path d="M176.902 59.462L137.564 54.832V206.768L176.902 211.398V59.462Z" fill="#EBEBEB"/>
<path d="M98.236 59.6055L62.6533 54.688V206.634L98.236 211.542V59.6055Z" fill="#EBEBEB"/>
<path d="M94.0786 59.0308L90.8968 69.93L90.1515 72.5086L82.3069 99.3778L81.8387 100.442L79.5455 99.5695L62.6523 93.1758V90.3192L80.4628 97.0676L91.6421 58.6953L94.0786 59.0308Z" fill="white"/>
<path d="M130.847 55.5322L129.394 56.4141L126.891 57.9287L111.192 67.4283L109.061 68.7224L98.3694 75.2025L98.2261 75.1641L90.1521 72.5088L89.0342 72.1446L89.703 69.5468L90.8974 69.9302L98.0923 72.2979L98.2261 72.2117L124.445 56.3374V56.3279H124.454L127.092 56.0019L128.468 55.8294H128.477L130.847 55.5322Z" fill="white"/>
<path d="M169.373 58.5801L167.328 67.1402L166.64 70.0352L155.308 117.274L154.687 119.891L154.677 119.93L146.278 116.651L143.364 115.444L137.526 113.028L136.8 112.721L135.625 110.852L109.062 68.7219L108.45 67.7537L110.409 66.1817L111.192 67.4278L122.926 86.034L124.503 88.5455L138.329 110.468L153.043 116.364L160.63 84.7304L161.308 81.9025L166.955 58.2925L169.373 58.5801Z" fill="white"/>
<path d="M162.445 82.8901L160.992 85.0373L160.629 84.7306L137.564 64.8015L136.895 64.2263L135.452 63.3253L133.359 62.0024L126.891 57.9284L126.317 57.5641L127.091 56.0016L128.467 55.8291H128.477L129.394 56.4138L137.564 61.571L138.28 62.0216L161.308 81.9027L162.445 82.8901Z" fill="white"/>
<path d="M212.474 93.3958V96.3195L206.225 93.3862L203.98 92.3222L176.261 79.2758L166.639 70.035L165.062 68.5204L166.62 66.4595L167.327 67.1401L177.532 76.9464L212.474 93.3958Z" fill="white"/>
<path d="M189.38 168.233L187.059 167.571L204.238 91.1909L206.56 91.8619L189.38 168.233Z" fill="white"/>
<path d="M212.475 158.206V161.034L183.179 171.339L180.848 172.154L177.485 173.342L141.376 207.219L138.032 206.826L150.492 195.14L152.995 192.792L163.974 182.487L165.952 180.637L176.319 170.917L187.164 167.102L189.858 166.153L212.475 158.206Z" fill="white"/>
<path d="M176.758 128.518L153.453 119.46L154.227 116.9L177.044 125.767L197.779 123.582L197.998 126.275L176.758 128.518Z" fill="white"/>
<path d="M124.197 89.2742L122.037 88.0856L133.857 60.8521L136.016 62.0407L124.197 89.2742Z" fill="white"/>
<path d="M153.52 192.869L153.205 195.553L150.491 195.141L137.086 193.128L98.1108 179.477L62.6523 183.427V180.704L86.6449 178.04L89.798 177.694L98.3497 176.736L98.5886 176.822L120.852 184.606L123.365 185.488L137.601 190.472L152.995 192.792L153.52 192.869Z" fill="white"/>
<path d="M71.1849 125.049L62.6523 144.757V138.574L79.5455 99.5693L80.1475 98.189L82.3069 99.3776L81.8387 100.442L72.3315 122.393L71.1849 125.049Z" fill="white"/>
<path d="M90.1993 178.116L88.5463 180.081L86.6449 178.039L62.6523 152.33V148.601L81.3132 168.597L83.2337 170.649L89.798 177.694L90.1993 178.116Z" fill="white"/>
<path d="M98.3791 126.458L70.3926 125.01L70.5072 122.298L98.0829 123.735L137.21 110.306L137.918 112.894L98.3791 126.458Z" fill="white"/>
<path d="M82.9764 171.473L80.7119 170.591L94.7099 124.32L96.984 125.202L82.9764 171.473Z" fill="white"/>
<path d="M212.474 138V140.722L196.04 138.671L194.998 138.536L195.256 135.843L196.632 136.015L212.474 138Z" fill="white"/>
<path d="M164.251 183.369L143.173 114.84L145.447 113.948L166.516 182.487L164.251 183.369Z" fill="white"/>
<path d="M122.133 187.06L120.337 185.258L136.81 164.428L155.853 152.627L157.009 155.005L138.319 166.575L122.133 187.06Z" fill="white"/>
<path d="M169.372 58.5796L167.327 67.1398L166.639 70.0347L155.307 117.274L154.686 119.891L154.676 119.929L146.277 116.651L143.363 115.443L137.525 113.027L136.799 112.721L135.624 110.851L109.061 68.7214L108.449 67.7533L110.408 66.1812L111.191 67.4273L122.925 86.0335L124.502 88.545L138.328 110.468L153.042 116.363L160.629 84.7299L161.307 81.902L166.954 58.292L169.372 58.5796Z" fill="white"/>
<path d="M176.758 128.518L153.453 119.46L154.227 116.9L177.044 125.767L197.779 123.582L197.998 126.275L176.758 128.518Z" fill="white"/>
<path d="M153.52 192.869L153.205 195.553L150.482 195.141L137.086 193.128L121.654 187.721H121.645L105.927 182.219L98.1108 179.487L62.6523 183.427V180.704L86.6449 178.04L89.798 177.694L98.3497 176.736L98.5886 176.822L105.927 179.391L120.852 184.615L123.365 185.488H123.374L123.412 185.507L137.601 190.472L152.995 192.792L153.52 192.869Z" fill="white"/>
<path d="M166.516 182.487L164.251 183.369L155.766 155.781V155.771L154.964 153.183L143.354 115.453V115.444L143.173 114.84L143.46 114.734L145.447 113.948L146.278 116.651L157.897 154.458L166.516 182.487Z" fill="white"/>
<path d="M157.008 154.994V155.004L155.766 155.78L138.318 166.574L123.374 185.487L122.132 187.059L120.336 185.257L120.852 184.615L136.809 164.427L154.963 153.183L155.852 152.636L157.008 154.994Z" fill="white"/>
<path d="M200.043 208.244L197.483 208.58L180.847 172.154L180.389 171.137L182.519 169.901L183.179 171.339L200.043 208.244Z" fill="white"/>
<path d="M108.306 115.894L128.744 108.877L115.386 87.6826L104.149 91.469L108.306 115.894Z" fill="#EBEBEB"/>
<path d="M182.605 119.268L194.282 118.041L199.613 94.728L187.029 88.8135L182.605 119.268Z" fill="#EBEBEB"/>
<path d="M212.475 86.6377L186.208 74.895V58.1101L212.475 54.688V86.6377Z" fill="#EBEBEB"/>
<path d="M101.322 77.4551L107.858 73.4961L113.715 82.8136L103.281 86.3891L101.322 77.4551Z" fill="#EBEBEB"/>
<path d="M144.023 168.674L154.677 162.079L160.391 180.647L152.757 187.808L144.023 186.494V168.674Z" fill="#DCDBDB"/>
<path d="M143.345 60.4687V55.4937L164.519 58.0052L160.41 75.2022L143.345 60.4687Z" fill="#DCDBDB"/>
<path d="M66.6279 145.649L80.2246 160.219L89.0152 131.059L73.2495 130.244L66.6279 145.649Z" fill="#DCDBDB"/>
<path d="M66.3984 87.0976V63.3726L85.6039 66.1429L78.1988 91.5646L66.3984 87.0976Z" fill="#DCDBDB"/>
<path d="M66.3984 60.4687L85.6039 63.239L87.1327 58.0722L66.3984 55.2061V60.4687Z" fill="#DCDBDB"/>
<path d="M102.239 207.526V185.296L116.333 190.252V205.762L102.239 207.526Z" fill="#EBEBEB"/>
<path d="M65.6523 187.031L76.6023 185.804V205.292L65.6523 203.778V187.031Z" fill="#DCDBDB"/>
<path d="M203.464 203.317L191.253 176.572L212.474 169.105V202.138L203.464 203.317Z" fill="#EBEBEB"/>
<path d="M173.7 119.191V105.695L161.508 101.41L158.632 113.45L173.7 119.191Z" fill="#DCDBDB"/>
<path d="M94.9945 145.732H36.5975C35.8699 145.732 35.2812 145.141 35.2812 144.411V127.392C35.2812 126.662 35.8699 126.072 36.5975 126.072H94.9945C95.7221 126.072 96.3107 126.662 96.3107 127.392V144.411C96.3189 145.141 95.7221 145.732 94.9945 145.732Z" fill="#7F56D9"/>
<path d="M48.6787 138.671C50.4123 136.932 50.4123 134.112 48.6787 132.373C46.9451 130.634 44.1343 130.634 42.4007 132.373C40.6671 134.112 40.6671 136.932 42.4007 138.671C44.1343 140.41 46.9451 140.41 48.6787 138.671Z" fill="white"/>
<path d="M45.1654 137.727C45.1572 137.727 45.1572 137.727 45.149 137.727C45.01 137.727 44.8711 137.661 44.7811 137.554L42.819 135.332C42.631 135.119 42.6473 134.79 42.8599 134.602C43.0725 134.413 43.3995 134.43 43.5875 134.643L45.1817 136.455L49.1305 132.478C49.3348 132.272 49.6619 132.272 49.8581 132.478C50.0624 132.683 50.0624 133.011 49.8581 133.207L45.5251 137.579C45.427 137.669 45.2962 137.727 45.1654 137.727Z" fill="#FDB022"/>
<path d="M87.8491 132.904H56.619C56.4801 132.904 56.3574 132.789 56.3574 132.642C56.3574 132.502 56.4719 132.379 56.619 132.379H87.8491C87.9881 132.379 88.1108 132.494 88.1108 132.642C88.1026 132.789 87.9881 132.904 87.8491 132.904Z" fill="white"/>
<path d="M70.5745 136.627H56.619C56.4801 136.627 56.3574 136.513 56.3574 136.365C56.3574 136.217 56.4719 136.103 56.619 136.103H70.5745C70.7135 136.103 70.8361 136.217 70.8361 136.365C70.8361 136.513 70.7135 136.627 70.5745 136.627Z" fill="white"/>
<path d="M70.5745 140.851H56.619C56.4801 140.851 56.3574 140.736 56.3574 140.589C56.3574 140.449 56.4719 140.326 56.619 140.326H70.5745C70.7135 140.326 70.8361 140.441 70.8361 140.589C70.8279 140.736 70.7135 140.851 70.5745 140.851Z" fill="white"/>
<path d="M87.8489 136.627H73.8934C73.7545 136.627 73.6318 136.513 73.6318 136.365C73.6318 136.217 73.7463 136.103 73.8934 136.103H87.8489C87.9879 136.103 88.1105 136.217 88.1105 136.365C88.1105 136.513 87.9879 136.627 87.8489 136.627Z" fill="white"/>
<path d="M79.1833 163.029H20.7782C20.0505 163.029 19.4619 162.439 19.4619 161.709V144.69C19.4619 143.96 20.0505 143.369 20.7782 143.369H79.1752C79.9028 143.369 80.4914 143.96 80.4914 144.69V161.709C80.4996 162.43 79.9109 163.029 79.1833 163.029Z" fill="white"/>
<path d="M29.7234 157.271C32.1752 157.271 34.1627 155.277 34.1627 152.817C34.1627 150.358 32.1752 148.364 29.7234 148.364C27.2717 148.364 25.2842 150.358 25.2842 152.817C25.2842 155.277 27.2717 157.271 29.7234 157.271Z" fill="#FDB022"/>
<path opacity="0.69" d="M72.0288 150.201H40.7987C40.6597 150.201 40.5371 150.086 40.5371 149.939C40.5371 149.799 40.6516 149.676 40.7987 149.676H72.0288C72.1678 149.676 72.2904 149.791 72.2904 149.939C72.2904 150.086 72.176 150.201 72.0288 150.201Z" fill="#FDB022"/>
<path opacity="0.69" d="M54.7542 153.917H40.7987C40.6597 153.917 40.5371 153.802 40.5371 153.655C40.5371 153.515 40.6516 153.392 40.7987 153.392H54.7542C54.8931 153.392 55.0158 153.507 55.0158 153.655C55.0158 153.802 54.8931 153.917 54.7542 153.917Z" fill="#FDB022"/>
<path opacity="0.69" d="M54.7542 158.148H40.7987C40.6597 158.148 40.5371 158.034 40.5371 157.886C40.5371 157.747 40.6516 157.624 40.7987 157.624H54.7542C54.8931 157.624 55.0158 157.738 55.0158 157.886C55.0158 158.034 54.8931 158.148 54.7542 158.148Z" fill="#FDB022"/>
<path opacity="0.69" d="M72.0286 153.917H58.0731C57.9342 153.917 57.8115 153.802 57.8115 153.655C57.8115 153.515 57.926 153.392 58.0731 153.392H72.0286C72.1676 153.392 72.2902 153.507 72.2902 153.655C72.2902 153.802 72.1757 153.917 72.0286 153.917Z" fill="#FDB022"/>
<path d="M171.374 77.3891C171.374 77.1885 171.358 76.9802 171.335 76.7719C171.174 75.0593 170.536 73.3467 169.444 72.0043C168.99 71.418 168.436 70.9088 167.806 70.4923C167.26 70.1374 166.652 69.8519 165.991 69.6591C165.968 69.6514 165.945 69.6436 165.922 69.6359C165.914 69.6359 165.914 69.6359 165.914 69.6359C165.307 69.4739 164.661 69.3813 163.961 69.3813C162.807 69.3813 161.777 69.6282 160.885 70.0602C160.224 70.3765 159.639 70.7931 159.124 71.2791C157.648 72.6986 156.786 74.7353 156.586 76.7719C156.356 79.1172 156.863 81.3698 157.825 83.5376C159.001 86.176 160.854 88.6987 162.869 91.0979C163.23 91.53 163.592 91.9543 163.961 92.3786C164.238 92.0623 164.515 91.7383 164.791 91.4142C168.413 87.1326 171.604 82.473 171.374 77.3891ZM164.084 80.8684C164.045 80.8761 163.999 80.8761 163.961 80.8761C161.723 80.8761 159.916 79.0632 159.916 76.8259C159.916 75.4373 160.608 74.2107 161.677 73.4855C162.323 73.0381 163.107 72.7758 163.961 72.7758C163.984 72.7758 164.015 72.7758 164.038 72.7835C165.191 72.7989 166.222 73.3004 166.944 74.095C167.606 74.8124 168.006 75.769 168.006 76.8259C168.006 77.7903 167.667 78.6774 167.106 79.3718C166.66 79.9272 166.06 80.3669 165.376 80.6138C164.976 80.7758 164.538 80.8607 164.084 80.8684Z" fill="#7F56D9"/>
<path d="M198.181 142.176V142.146C198.112 141.444 197.958 140.742 197.728 140.063C196.836 137.37 194.721 135.087 191.499 134.801C191.268 134.77 191.038 134.763 190.799 134.763C190.346 134.763 189.907 134.801 189.492 134.878C185.839 135.519 183.755 138.828 183.425 142.146C183.325 143.133 183.363 144.105 183.509 145.062C183.556 145.363 183.609 145.663 183.679 145.964C183.771 146.373 183.879 146.767 184.002 147.168C184.64 149.181 185.716 151.125 187.024 153C188.154 154.636 189.461 156.225 190.799 157.76C191.453 157.012 192.099 156.248 192.722 155.469C194.352 153.447 195.821 151.341 196.828 149.15C197.858 146.921 198.412 144.599 198.181 142.176ZM188.554 145.571C187.908 145.139 187.4 144.529 187.085 143.804C186.878 143.318 186.762 142.778 186.762 142.207C186.762 140.78 187.493 139.523 188.608 138.805C189.223 138.396 189.953 138.165 190.738 138.149H190.799C192.66 138.149 194.229 139.415 194.69 141.127C194.79 141.467 194.844 141.829 194.844 142.207C194.844 142.632 194.783 143.04 194.66 143.418C194.144 145.062 192.614 146.257 190.799 146.257C189.969 146.257 189.192 146.003 188.554 145.571Z" fill="#7F56D9"/>
<path opacity="0.33" d="M160.329 158.26C168.583 147.412 166.509 131.905 155.696 123.624C144.883 115.343 129.426 117.424 121.172 128.272C112.918 139.12 114.992 154.627 125.805 162.908C136.618 171.189 152.075 169.108 160.329 158.26Z" fill="white"/>
<path d="M162.974 125.242C158.868 120.088 153.032 116.362 146.28 114.989C144.919 114.711 143.512 114.534 142.074 114.456C141.812 114.441 141.566 114.433 141.312 114.418H141.305C137.821 114.325 134.453 114.865 131.323 115.922C129.909 116.401 128.548 116.995 127.24 117.681H127.225C126.094 118.275 124.995 118.946 123.949 119.695C122.35 120.821 120.865 122.117 119.527 123.552L119.52 123.56C116.859 126.414 114.768 129.816 113.445 133.589C112.53 136.135 111.968 138.858 111.822 141.697C111.822 141.758 111.822 141.82 111.815 141.882C111.715 143.996 111.845 146.071 112.184 148.077V148.084C112.284 148.678 112.399 149.272 112.545 149.859C112.722 150.638 112.937 151.402 113.183 152.15V152.158C114.152 155.159 115.606 157.951 117.459 160.443C117.059 160.59 116.682 160.798 116.344 161.099L114.891 162.38L113.26 163.822L112.045 164.887L111.192 165.651L107.947 168.505V168.513L107.939 168.52L105.102 171.02L104.063 171.93L102.687 173.149L99.6649 175.811L99.2881 176.15C99.2112 176.22 99.1344 176.289 99.0728 176.366C97.8655 177.631 97.804 179.637 98.9806 180.972C99.1882 181.211 99.4189 181.411 99.6649 181.574C99.7649 181.635 99.8572 181.697 99.9648 181.751C100.395 181.975 100.872 182.106 101.357 182.129C101.803 182.152 102.256 182.09 102.687 181.936C103.079 181.797 103.456 181.574 103.787 181.288L104.763 180.424L105.102 180.123L112.491 173.604L112.522 173.573L113.914 172.355L115.683 170.788L117.767 168.96L117.813 168.914L120.85 166.229C121.227 165.89 121.519 165.481 121.711 165.041C124.487 167.456 127.74 169.354 131.323 170.565C132.369 170.927 133.446 171.221 134.545 171.452C135.983 171.761 137.468 171.961 138.99 172.046C141.351 172.169 143.658 172.007 145.88 171.583H145.888C147.864 171.213 149.756 170.642 151.571 169.878H151.578C152.516 169.485 153.424 169.045 154.316 168.559C157.653 166.723 160.598 164.239 162.974 161.261C165.72 157.828 167.704 153.739 168.649 149.234V149.226C168.842 148.324 168.988 147.406 169.088 146.472C169.149 145.917 169.203 145.361 169.226 144.79C169.626 137.438 167.227 130.572 162.974 125.242ZM134.007 167.078C133.984 167.07 133.961 167.07 133.938 167.062C133.884 167.047 133.838 167.031 133.784 167.024L133.392 166.908C133.307 166.877 133.215 166.854 133.131 166.823C133.1 166.815 133.061 166.8 133.031 166.792C132.877 166.746 132.723 166.692 132.569 166.638C132.292 166.545 132.023 166.453 131.762 166.345C131.616 166.291 131.47 166.229 131.323 166.175C131.308 166.167 131.3 166.167 131.293 166.16C131.154 166.106 131.008 166.044 130.87 165.982C130.839 165.975 130.808 165.959 130.778 165.944C130.701 165.913 130.631 165.882 130.555 165.851C130.378 165.774 130.193 165.689 130.024 165.604C129.985 165.589 129.955 165.573 129.916 165.558C129.809 165.504 129.709 165.45 129.601 165.396C129.501 165.35 129.401 165.296 129.293 165.242C129.286 165.234 129.27 165.234 129.263 165.226C129.078 165.141 128.909 165.041 128.732 164.941C128.701 164.925 128.671 164.91 128.64 164.895C128.424 164.779 128.209 164.655 128.002 164.524C127.694 164.347 127.386 164.154 127.086 163.961C126.771 163.753 126.456 163.537 126.156 163.321C126.156 163.321 126.148 163.321 126.148 163.313C125.941 163.166 125.741 163.02 125.541 162.858C125.425 162.773 125.318 162.688 125.21 162.603C124.979 162.418 124.756 162.241 124.533 162.04H124.526C124.487 162.009 124.457 161.978 124.418 161.948C124.334 161.87 124.249 161.793 124.164 161.716C124.049 161.616 123.926 161.508 123.811 161.392C123.603 161.199 123.395 160.999 123.195 160.806C123.18 160.79 123.165 160.775 123.149 160.76C123.042 160.652 122.934 160.544 122.826 160.428C122.719 160.32 122.611 160.204 122.511 160.096C122.403 159.98 122.303 159.872 122.203 159.757C122.096 159.641 122.004 159.525 121.904 159.409C121.896 159.402 121.896 159.402 121.888 159.394C121.834 159.332 121.781 159.278 121.734 159.217C121.696 159.17 121.65 159.116 121.611 159.07C121.527 158.97 121.442 158.869 121.365 158.769V158.761C121.281 158.669 121.212 158.576 121.135 158.484C121.05 158.368 120.965 158.26 120.881 158.152C120.835 158.09 120.796 158.036 120.758 157.982C120.65 157.843 120.55 157.705 120.45 157.558C120.389 157.473 120.327 157.381 120.266 157.296C120.15 157.134 120.043 156.972 119.935 156.802C119.843 156.663 119.75 156.516 119.658 156.378C119.658 156.37 119.651 156.354 119.643 156.347C119.527 156.169 119.428 155.992 119.32 155.814C119.289 155.768 119.266 155.722 119.235 155.676C119.212 155.645 119.197 155.606 119.174 155.568C119.174 155.568 119.174 155.56 119.166 155.552C119.166 155.552 119.166 155.544 119.158 155.544C118.912 155.12 118.682 154.68 118.466 154.241C118.466 154.233 118.459 154.233 118.459 154.225C118.382 154.071 118.312 153.917 118.236 153.77C118.228 153.755 118.22 153.739 118.213 153.724C118.151 153.577 118.082 153.431 118.013 153.276C117.997 153.238 117.974 153.191 117.959 153.153C117.951 153.122 117.936 153.091 117.92 153.053C117.866 152.945 117.82 152.821 117.774 152.705C117.667 152.466 117.567 152.219 117.482 151.973C117.482 151.965 117.474 151.957 117.467 151.942C117.328 151.595 117.205 151.24 117.098 150.885C117.067 150.777 117.036 150.677 116.998 150.576C116.936 150.391 116.882 150.206 116.836 150.021C116.798 149.89 116.759 149.751 116.721 149.612C116.682 149.473 116.652 149.334 116.621 149.195C116.59 149.08 116.559 148.964 116.536 148.856C116.528 148.848 116.528 148.848 116.528 148.84C116.49 148.678 116.459 148.516 116.421 148.347C116.421 148.324 116.413 148.293 116.405 148.27C116.352 148.023 116.305 147.768 116.267 147.514C116.252 147.421 116.236 147.328 116.221 147.244C116.213 147.22 116.213 147.213 116.213 147.19C116.182 146.989 116.144 146.788 116.121 146.588C116.121 146.549 116.113 146.511 116.106 146.48V146.472C116.036 145.924 115.983 145.377 115.944 144.829V144.752C115.929 144.528 115.929 144.304 115.921 144.081C115.906 143.741 115.898 143.402 115.898 143.055C115.898 143.008 115.898 142.97 115.898 142.923C115.898 142.592 115.913 142.252 115.929 141.913C115.936 141.735 115.944 141.558 115.959 141.373C115.959 141.303 115.967 141.226 115.975 141.157C115.975 141.141 115.975 141.126 115.983 141.11C115.998 140.887 116.021 140.655 116.052 140.432C116.052 140.401 116.059 140.37 116.059 140.347C116.082 140.108 116.121 139.868 116.152 139.637V139.614C116.182 139.429 116.213 139.251 116.244 139.066C116.252 139.004 116.267 138.943 116.275 138.873C116.29 138.773 116.313 138.665 116.336 138.565C116.405 138.148 116.498 137.739 116.598 137.338C116.613 137.253 116.636 137.168 116.659 137.091C116.675 137.014 116.705 136.937 116.728 136.852C116.751 136.767 116.767 136.682 116.798 136.597C116.798 136.582 116.798 136.567 116.805 136.551C116.836 136.443 116.867 136.327 116.898 136.219C116.921 136.135 116.951 136.042 116.982 135.957C116.998 135.888 117.028 135.81 117.051 135.733C117.074 135.664 117.098 135.594 117.121 135.517C117.174 135.332 117.236 135.155 117.297 134.977C117.351 134.846 117.39 134.715 117.444 134.592C117.451 134.553 117.467 134.522 117.482 134.491C117.574 134.237 117.674 133.982 117.774 133.735C117.843 133.566 117.913 133.404 117.997 133.234C118.074 133.056 118.151 132.879 118.228 132.702C118.312 132.532 118.397 132.354 118.489 132.177C118.535 132.092 118.582 131.999 118.628 131.907C118.666 131.83 118.705 131.745 118.751 131.668C118.751 131.652 118.759 131.645 118.766 131.629C118.851 131.475 118.935 131.313 119.028 131.159C119.12 130.989 119.22 130.819 119.32 130.657C119.404 130.511 119.489 130.364 119.574 130.233C119.689 130.04 119.812 129.855 119.927 129.677C120.135 129.353 120.35 129.037 120.581 128.728C120.642 128.636 120.704 128.551 120.773 128.458C120.858 128.343 120.942 128.235 121.027 128.127C121.035 128.111 121.05 128.096 121.065 128.08C121.119 128.011 121.173 127.942 121.235 127.872C121.55 127.471 121.873 127.085 122.203 126.715C122.327 126.576 122.457 126.437 122.588 126.306C122.665 126.214 122.749 126.129 122.834 126.044C122.88 125.99 122.926 125.944 122.972 125.897C123.103 125.766 123.242 125.635 123.372 125.496L123.38 125.488C123.449 125.427 123.518 125.357 123.595 125.288C123.672 125.218 123.749 125.141 123.826 125.072C124.049 124.863 124.28 124.655 124.51 124.47C124.703 124.293 124.903 124.131 125.103 123.976C125.249 123.845 125.402 123.729 125.556 123.614C125.61 123.567 125.672 123.529 125.725 123.483C125.887 123.359 126.048 123.236 126.218 123.12C126.256 123.089 126.302 123.058 126.348 123.027C126.471 122.943 126.594 122.858 126.717 122.773C126.879 122.673 127.033 122.565 127.194 122.457C127.209 122.441 127.233 122.433 127.248 122.418C127.425 122.302 127.609 122.194 127.794 122.079C127.917 122.001 128.048 121.924 128.178 121.855C128.278 121.793 128.386 121.731 128.494 121.67C128.64 121.585 128.778 121.508 128.924 121.438C129.055 121.369 129.178 121.299 129.309 121.23C129.432 121.168 129.563 121.099 129.693 121.037C129.693 121.029 129.709 121.029 129.709 121.029H129.716C129.732 121.022 129.739 121.014 129.755 121.006C129.901 120.937 130.055 120.867 130.201 120.798C130.208 120.79 130.216 120.79 130.224 120.782C130.293 120.752 130.362 120.721 130.431 120.69C130.724 120.559 131.016 120.435 131.316 120.312C131.5 120.235 131.7 120.158 131.885 120.088C132.239 119.957 132.585 119.834 132.938 119.726C133.123 119.656 133.307 119.602 133.492 119.548C133.853 119.44 134.215 119.34 134.584 119.247H134.615C134.715 119.224 134.807 119.201 134.907 119.178C135.045 119.139 135.184 119.108 135.322 119.078C135.407 119.062 135.499 119.047 135.584 119.024C135.737 119 135.883 118.97 136.037 118.939C136.283 118.892 136.522 118.854 136.76 118.815C136.891 118.792 137.014 118.777 137.137 118.761C137.252 118.746 137.375 118.73 137.491 118.715H137.506C137.544 118.707 137.583 118.707 137.621 118.707C137.914 118.669 138.221 118.638 138.529 118.615C138.575 118.607 138.629 118.607 138.683 118.599H138.69C138.767 118.592 138.836 118.584 138.913 118.584C139.067 118.568 139.229 118.561 139.39 118.561C139.628 118.545 139.867 118.545 140.105 118.538H140.167C140.274 118.538 140.39 118.538 140.505 118.545C140.567 118.545 140.636 118.545 140.697 118.545C140.79 118.545 140.874 118.545 140.966 118.545C141.259 118.553 141.543 118.553 141.843 118.568C141.866 118.568 141.889 118.576 141.912 118.576H141.981C142.081 118.584 142.181 118.584 142.274 118.599C142.335 118.599 142.397 118.607 142.458 118.607C142.512 118.615 142.566 118.622 142.62 118.63H142.643C142.697 118.63 142.75 118.638 142.804 118.646C142.973 118.661 143.15 118.684 143.319 118.7C143.389 118.707 143.458 118.715 143.527 118.723C143.596 118.73 143.673 118.738 143.742 118.746C143.781 118.746 143.827 118.754 143.865 118.761C143.904 118.769 143.95 118.769 143.988 118.777C144.119 118.8 144.25 118.823 144.381 118.838C144.404 118.838 144.427 118.838 144.45 118.846C144.642 118.877 144.834 118.908 145.027 118.954C145.173 118.97 145.303 119 145.45 119.031C145.488 119.039 145.542 119.047 145.588 119.062C145.834 119.108 146.072 119.17 146.318 119.224C146.349 119.232 146.388 119.24 146.418 119.247C146.588 119.294 146.764 119.34 146.934 119.386C146.972 119.394 147.018 119.409 147.057 119.417C147.126 119.432 147.187 119.448 147.257 119.471C147.387 119.51 147.518 119.548 147.649 119.587C147.726 119.602 147.795 119.633 147.872 119.656C147.879 119.656 147.887 119.656 147.903 119.664C147.941 119.679 147.987 119.687 148.033 119.702C148.126 119.733 148.218 119.764 148.31 119.795C148.433 119.834 148.564 119.88 148.679 119.918C148.725 119.934 148.779 119.949 148.825 119.972C148.971 120.026 149.11 120.073 149.248 120.134C149.302 120.15 149.348 120.165 149.402 120.188C149.471 120.212 149.54 120.242 149.602 120.266C149.717 120.312 149.833 120.358 149.94 120.404C150.009 120.435 150.071 120.458 150.14 120.489C150.44 120.613 150.732 120.744 151.025 120.883C151.301 121.014 151.578 121.153 151.847 121.299C151.947 121.346 152.04 121.4 152.14 121.454C152.263 121.515 152.386 121.577 152.501 121.646C152.632 121.724 152.77 121.801 152.901 121.878C152.978 121.917 153.047 121.963 153.124 122.009C153.178 122.04 153.239 122.071 153.293 122.109C153.501 122.233 153.716 122.364 153.924 122.511C153.962 122.534 154 122.557 154.039 122.588C154.2 122.688 154.362 122.796 154.516 122.904C154.669 123.012 154.831 123.128 154.985 123.243C155.085 123.313 155.185 123.382 155.285 123.459C155.392 123.537 155.492 123.614 155.592 123.691C155.692 123.776 155.792 123.853 155.9 123.938C155.954 123.976 156 124.023 156.046 124.061C156.192 124.177 156.338 124.3 156.477 124.416C156.584 124.501 156.676 124.586 156.776 124.678C156.938 124.817 157.099 124.964 157.253 125.11C157.376 125.226 157.499 125.342 157.615 125.458C157.653 125.488 157.692 125.527 157.73 125.566C157.938 125.766 158.138 125.974 158.345 126.19C158.453 126.298 158.56 126.414 158.653 126.53C158.753 126.63 158.845 126.73 158.937 126.838C159.022 126.931 159.106 127.024 159.183 127.124C159.276 127.216 159.36 127.317 159.437 127.417C159.552 127.556 159.675 127.695 159.775 127.841C159.852 127.926 159.922 128.019 159.991 128.104C160.152 128.32 160.321 128.536 160.475 128.752C160.552 128.86 160.629 128.968 160.706 129.083C160.783 129.184 160.852 129.292 160.921 129.392C161.037 129.554 161.137 129.716 161.236 129.878C161.29 129.955 161.344 130.04 161.398 130.125C161.459 130.225 161.529 130.333 161.59 130.433C161.652 130.534 161.713 130.642 161.775 130.742C161.798 130.781 161.821 130.819 161.836 130.858C161.852 130.881 161.867 130.904 161.875 130.919C161.936 131.027 161.998 131.135 162.052 131.236C162.113 131.344 162.175 131.452 162.228 131.56C162.282 131.66 162.336 131.76 162.39 131.868C162.398 131.876 162.398 131.884 162.405 131.891C162.459 131.999 162.521 132.115 162.574 132.231C162.598 132.277 162.621 132.331 162.651 132.378C162.721 132.516 162.79 132.663 162.851 132.81C162.89 132.887 162.928 132.972 162.967 133.056V133.064C163.097 133.35 163.22 133.643 163.336 133.936C163.382 134.036 163.42 134.136 163.459 134.237C163.543 134.437 163.62 134.638 163.689 134.838C163.72 134.908 163.743 134.985 163.766 135.054C163.813 135.186 163.851 135.317 163.897 135.448C163.912 135.486 163.928 135.533 163.936 135.571C164.02 135.834 164.105 136.096 164.182 136.358C164.274 136.667 164.358 136.983 164.435 137.292V137.315C164.528 137.677 164.612 138.048 164.681 138.426C164.743 138.711 164.797 139.004 164.835 139.298C164.851 139.382 164.866 139.475 164.881 139.56C164.881 139.591 164.889 139.622 164.897 139.652C164.912 139.814 164.935 139.976 164.958 140.131C164.958 140.162 164.966 140.185 164.966 140.2C164.981 140.347 165.004 140.493 165.02 140.648C165.043 140.864 165.058 141.08 165.074 141.296C165.089 141.488 165.104 141.681 165.112 141.874C165.112 141.92 165.12 141.967 165.12 142.005C165.127 142.136 165.135 142.26 165.135 142.383C165.143 142.653 165.151 142.923 165.151 143.201C165.151 143.656 165.135 144.111 165.112 144.567C165.097 144.821 165.081 145.076 165.058 145.323C165.051 145.485 165.035 145.639 165.02 145.793C165.004 145.986 164.974 146.179 164.951 146.372C164.935 146.495 164.92 146.626 164.897 146.758C164.897 146.796 164.889 146.827 164.881 146.866C164.874 146.95 164.858 147.028 164.843 147.112C164.835 147.19 164.82 147.274 164.805 147.352C164.797 147.398 164.789 147.444 164.781 147.483C164.781 147.521 164.774 147.568 164.766 147.614C164.728 147.807 164.689 147.992 164.651 148.185V148.208C164.612 148.393 164.566 148.586 164.528 148.779C164.489 148.964 164.443 149.149 164.397 149.342C164.397 149.342 164.397 149.35 164.389 149.35C164.389 149.357 164.389 149.365 164.382 149.373V149.38C164.382 149.396 164.374 149.411 164.374 149.427C164.366 149.45 164.358 149.473 164.351 149.504C164.32 149.65 164.282 149.789 164.235 149.928C164.205 150.036 164.174 150.137 164.143 150.245C164.128 150.306 164.105 150.368 164.089 150.43C164.074 150.491 164.051 150.553 164.028 150.607C163.989 150.761 163.943 150.916 163.889 151.062C163.882 151.093 163.874 151.116 163.859 151.147C163.805 151.301 163.759 151.463 163.697 151.618C163.682 151.664 163.666 151.703 163.651 151.749C163.597 151.888 163.551 152.027 163.49 152.165C163.436 152.312 163.382 152.466 163.32 152.613C163.305 152.644 163.29 152.675 163.274 152.713C163.267 152.729 163.267 152.744 163.259 152.759C163.259 152.767 163.251 152.767 163.251 152.775V152.783C163.159 152.991 163.067 153.199 162.967 153.407V153.415C162.959 153.431 162.959 153.431 162.959 153.438C162.944 153.477 162.921 153.515 162.905 153.546C162.821 153.747 162.728 153.932 162.636 154.117V154.125C162.628 154.14 162.621 154.148 162.621 154.164V154.179C162.567 154.287 162.513 154.395 162.451 154.503C162.298 154.812 162.136 155.112 161.967 155.406C161.936 155.467 161.898 155.521 161.867 155.583C161.767 155.753 161.667 155.922 161.567 156.084C161.544 156.123 161.529 156.162 161.498 156.2C161.475 156.239 161.444 156.285 161.421 156.331C161.39 156.385 161.352 156.432 161.321 156.486C161.083 156.864 160.837 157.234 160.567 157.597C160.567 157.604 160.56 157.612 160.56 157.612C160.468 157.743 160.375 157.874 160.275 157.998C160.221 158.075 160.168 158.144 160.114 158.221C160.106 158.229 160.106 158.237 160.098 158.237C160.091 158.245 160.091 158.252 160.091 158.252C160.022 158.345 159.952 158.43 159.883 158.515C159.791 158.638 159.691 158.761 159.591 158.885C159.429 159.085 159.253 159.294 159.076 159.494C158.937 159.649 158.799 159.811 158.653 159.965C158.622 160.003 158.584 160.05 158.545 160.088C158.53 160.104 158.514 160.119 158.499 160.135C158.33 160.312 158.161 160.489 157.991 160.659C157.815 160.837 157.638 161.014 157.453 161.192C157.43 161.215 157.399 161.238 157.376 161.261C157.199 161.431 157.023 161.593 156.838 161.755C156.83 161.762 156.83 161.762 156.823 161.762C156.661 161.917 156.492 162.063 156.323 162.194C156.123 162.372 155.915 162.542 155.7 162.704C155.6 162.788 155.485 162.873 155.369 162.958C155.239 163.058 155.108 163.159 154.977 163.259H154.962C154.777 163.39 154.593 163.521 154.408 163.652C154.039 163.915 153.654 164.162 153.27 164.385C153.078 164.517 152.885 164.632 152.686 164.733C152.247 164.995 151.801 165.234 151.34 165.45C151.001 165.612 150.648 165.774 150.294 165.928C150.279 165.936 150.271 165.944 150.263 165.944H150.256L150.248 165.951C150.117 166.005 149.994 166.059 149.863 166.113C149.733 166.167 149.602 166.221 149.464 166.268C149.456 166.275 149.456 166.275 149.456 166.275C149.31 166.337 149.164 166.391 149.018 166.445C148.91 166.484 148.795 166.53 148.679 166.569C148.671 166.576 148.671 166.576 148.664 166.576H148.648C148.564 166.607 148.487 166.638 148.402 166.669C148.195 166.738 147.979 166.8 147.772 166.869C147.756 166.869 147.749 166.877 147.733 166.877C147.503 166.954 147.28 167.024 147.041 167.085C146.987 167.101 146.926 167.116 146.872 167.132C146.857 167.132 146.841 167.139 146.834 167.139C146.795 167.147 146.757 167.155 146.726 167.163C146.718 167.17 146.703 167.17 146.688 167.17C146.426 167.24 146.157 167.309 145.888 167.371C145.888 167.371 145.88 167.371 145.872 167.371C145.611 167.433 145.334 167.487 145.065 167.541C145.027 167.548 144.996 167.556 144.957 167.564H144.934C144.834 167.579 144.727 167.602 144.619 167.618C144.35 167.664 144.073 167.703 143.796 167.741C143.581 167.772 143.373 167.795 143.15 167.818C143.135 167.818 143.12 167.818 143.112 167.826C142.766 167.865 142.42 167.896 142.066 167.911C141.966 167.919 141.866 167.926 141.774 167.926C141.735 167.926 141.697 167.934 141.658 167.934C141.197 167.957 140.743 167.957 140.282 167.95C140.228 167.95 140.174 167.95 140.121 167.95H139.713C139.613 167.942 139.513 167.942 139.413 167.934H139.375C139.313 167.934 139.259 167.926 139.198 167.926C139.129 167.919 139.052 167.911 138.982 167.911C138.913 167.911 138.836 167.903 138.775 167.896C138.752 167.896 138.729 167.896 138.706 167.888C138.213 167.857 137.729 167.811 137.252 167.741C136.991 167.71 136.729 167.672 136.476 167.625C136.291 167.595 136.099 167.556 135.914 167.525C135.876 167.517 135.845 167.51 135.822 167.502C135.599 167.463 135.384 167.425 135.168 167.371C135.107 167.355 135.053 167.348 135.007 167.332C134.915 167.317 134.83 167.294 134.753 167.278C134.73 167.271 134.707 167.271 134.684 167.263C134.461 167.201 134.23 167.139 134.007 167.078Z" fill="#53389E"/>
<path d="M107.878 168.451L112.253 173.334C112.807 173.959 113.761 174.005 114.384 173.45L117.413 170.719C118.036 170.163 118.082 169.207 117.529 168.582L113.153 163.698C112.6 163.073 111.646 163.027 111.023 163.583L107.993 166.314C107.378 166.877 107.324 167.833 107.878 168.451Z" fill="white"/>
<path d="M116.291 171.738V171.73C116.16 171.491 115.953 171.167 115.683 170.789C115.222 170.156 114.599 169.385 113.915 168.59C113.722 168.366 113.523 168.135 113.323 167.911C112.6 167.093 111.839 166.291 111.193 165.651C110.97 165.427 110.754 165.226 110.562 165.057L110.554 165.049C110.339 164.848 110.139 164.679 109.97 164.54H109.962C109.655 164.308 109.439 164.2 109.362 164.27L108.224 165.311L108.217 165.319L104.456 168.744L102.688 170.357L99.6657 173.103L98.9121 173.79L88.1311 183.61L88.0542 183.68C85.8934 185.655 85.7089 189.034 87.6544 191.225C87.8082 191.402 87.9773 191.564 88.1465 191.718C90.0843 193.408 92.9987 193.446 94.9903 191.718C95.0288 191.688 95.0596 191.657 95.0903 191.626L99.6657 187.46L101.48 185.809L102.788 184.621L105.218 182.407L105.295 182.337H105.302L113.915 174.492L116.406 172.216C116.475 172.154 116.422 171.984 116.291 171.738Z" fill="#53389E"/>
<path d="M160.328 140.563C159.905 140.578 159.536 140.277 159.474 139.853C157.398 125.38 143.049 123.83 142.442 123.776C141.988 123.729 141.649 123.328 141.696 122.865C141.742 122.41 142.149 122.071 142.595 122.117C142.757 122.132 158.851 123.83 161.12 139.614C161.181 140.069 160.874 140.493 160.42 140.555C160.382 140.555 160.351 140.563 160.328 140.563Z" fill="#53389E"/>
<path d="M137.022 153.509V149.844C137.022 148.909 137.786 148.15 138.729 148.15H142.174C142.626 148.15 143.061 148.329 143.381 148.646C143.701 148.964 143.88 149.395 143.88 149.844V153.509C143.878 153.898 144.031 154.272 144.307 154.548C144.583 154.824 144.959 154.98 145.351 154.98H147.701C148.799 154.982 149.853 154.552 150.63 153.782C151.407 153.012 151.844 151.967 151.844 150.878V140.436C151.844 139.556 151.451 138.721 150.771 138.156L142.775 131.816C141.384 130.705 139.391 130.741 138.042 131.902L130.228 138.156C129.516 138.704 129.09 139.542 129.069 140.436V150.867C129.069 153.138 130.924 154.98 133.212 154.98H135.509C136.323 154.98 136.984 154.328 136.99 153.52L137.022 153.509Z" fill="#6941C6"/>
</svg>
