<svg width="22" height="22" viewBox="0 0 22 22" fill="none" xmlns="http://www.w3.org/2000/svg">
<path d="M20.6051 10.6158C20.6121 10.0783 20.3209 9.58423 19.8481 9.32493L8.82919 3.27082C8.33564 2.99189 7.75385 3.02616 7.28879 3.34372C6.8152 3.66664 6.5728 4.43534 6.70519 4.99054L7.73385 9.30025C7.83945 9.74217 8.23497 10.0533 8.69 10.0514L14.822 10.0324C15.136 10.0261 15.3907 10.2807 15.3844 10.5948C15.3834 10.9034 15.1325 11.1543 14.8185 11.1606L8.68066 11.1749C8.22563 11.1758 7.82818 11.4883 7.71984 11.9309L6.6548 16.2578C6.52549 16.7691 6.67292 17.2795 7.03369 17.6403C7.07613 17.6827 7.12388 17.7305 7.17166 17.7676C7.63888 18.128 8.25076 18.174 8.77317 17.8957L19.8295 11.9008C20.3039 11.6492 20.5981 11.1533 20.6051 10.6158" fill="white"/>
</svg>
