<svg width="94" height="110" viewBox="0 0 94 110" fill="none" xmlns="http://www.w3.org/2000/svg">
<path fill-rule="evenodd" clip-rule="evenodd" d="M45.2545 109.525C45.8636 109.843 46.5447 110.005 47.2257 110C47.9068 109.994 48.5823 109.827 49.1969 109.504L68.8203 99.0135C74.385 96.0472 78.7427 92.7303 82.1424 88.8687C89.5344 80.4551 93.5709 69.717 93.4989 58.6445L93.2664 22.1209C93.2442 17.9141 90.4812 14.1604 86.3949 12.7958L49.889 0.547603C47.6908 -0.196676 45.2822 -0.180496 43.1228 0.585356L6.75535 13.2705C2.69115 14.6889 -0.0220136 18.4696 0.000134595 22.6818L0.232691 59.1784C0.304673 70.2671 4.47962 80.9567 11.9934 89.284C15.4264 93.0917 19.8228 96.36 25.4485 99.2778L45.2545 109.525ZM40.0598 66.5991C40.8792 67.3865 41.9424 67.7749 43.0055 67.7641C44.0686 67.7587 45.1262 67.3596 45.9346 66.5614L67.3796 45.4195C68.9909 43.8285 68.9743 41.2721 67.3464 39.7026C65.713 38.1331 63.0829 38.1439 61.4716 39.735L42.9446 57.9968L35.3588 50.705C33.7254 49.1355 31.1008 49.1517 29.484 50.7427C27.8727 52.3338 27.8893 54.8902 29.5227 56.4597L40.0598 66.5991Z" fill="#7F56D9"/>
</svg>
